<svg width="629" height="471" viewBox="0 0 629 471" fill="none" xmlns="http://www.w3.org/2000/svg">
<path d="M231.657 346.292C171.691 380.059 205.458 463.312 225.253 466.806C240.499 469.496 290.619 467.953 314.91 466.806L502.958 327.662L392.923 312.525C359.156 312.525 279.629 319.278 231.657 346.292Z" fill="white"/>
<path d="M314.91 466.806C314.043 466.849 315.85 466.761 314.91 466.806ZM314.91 466.806C290.619 467.953 240.499 469.496 225.253 466.806C205.458 463.312 171.691 380.059 231.657 346.292C279.629 319.278 359.156 312.525 392.923 312.525L502.958 327.662L314.91 466.806Z" stroke="black" stroke-width="2.91102"/>
<path d="M247.957 357.721C289.409 349.803 323.06 374.151 334.703 387.315C336.648 384.595 338.751 381.906 341.022 379.262C337.443 363.543 267.752 346.659 247.957 357.721Z" fill="#000001"/>
<path d="M310.707 468.528C312.179 468.464 313.583 468.4 314.91 468.338L468.502 354.689C461.735 352.401 444.296 345.36 428.67 335.505C322.657 348.067 305.856 429.422 310.707 468.528Z" fill="#0E1729"/>
<path d="M486.073 468.337C562.339 443.885 502.956 333.269 502.956 329.193L474.428 325.269C329.113 334.239 307.534 424.385 314.909 468.337H408.059H486.073Z" fill="white" stroke="black" stroke-width="2.91102"/>
<path d="M392.923 426.42C402.238 435.735 406.896 458.246 408.061 468.338H416.793C414.464 456.888 406.43 432.475 392.923 426.42Z" fill="#000001"/>
<rect y="468.118" width="628.367" height="2.36822" fill="black"/>
<path d="M404.74 115.322C401.673 111.42 393.7 99.4322 386.341 82.7058C388.013 80.7542 391.191 74.8439 390.522 66.8152C381.825 65.4771 376.554 46.7434 375.006 37.5439C386.556 31.137 376.714 14.0458 380.487 13.2909C384.668 12.4542 395.54 16.6358 395.54 27.508C395.54 38.3802 414.168 33.2482 418.957 30.8533C430.665 24.999 426.484 39.2174 421.466 52.5981C418.79 57.2815 428.157 66.2581 433.174 70.1609C434.512 83.5421 422.581 104.171 416.448 112.813C417.285 137.903 417.452 188.083 411.43 188.083C407.416 180.054 405.297 136.23 404.74 115.322Z" fill="white" stroke="black" stroke-width="1.94068"/>
<path d="M397.211 39.2118C395.817 40.6057 393.866 44.5643 397.211 49.2477" stroke="#241715" stroke-width="0.970341"/>
<path d="M403.901 51.7628C403.344 54.8293 400.89 59.457 395.538 53.4354" stroke="#241715" stroke-width="0.970341"/>
<path d="M422.3 41.7231C423.416 38.6566 424.809 32.6908 421.464 33.3599" stroke="#241715" stroke-width="0.970341"/>
<path d="M389.629 76.0131C390.366 73.4597 390.815 70.3413 390.521 66.8139C395.155 69.3233 403.065 70.1597 419.791 58.4503C420.459 67.1481 399.961 73.783 389.629 76.0131Z" fill="black"/>
<path d="M432.337 13.2901C438.192 27.5076 424.81 46.7431 421.465 52.5973C426.483 39.2166 429.828 24.9982 418.956 30.8525C414.241 33.3914 395.539 38.3794 395.539 27.5072C395.539 16.635 384.667 12.4534 380.485 13.2901C376.713 14.045 386.555 31.1362 375.005 37.5431C373.753 38.2377 372.249 38.8067 370.449 39.2157C374.631 33.3615 372.958 34.1978 369.613 19.9803C366.268 5.76279 381.322 2.41792 395.539 0.745275C409.757 -0.927372 426.483 -0.927372 432.337 13.2901Z" fill="black"/>
<path d="M510.951 103.614C500.246 89.5639 454.638 75.458 433.173 70.1612C434.51 83.5424 422.579 104.172 416.447 112.814C417.283 137.903 417.45 188.083 411.429 188.083C407.414 180.054 405.296 136.231 404.738 115.323C401.672 111.42 393.699 99.4326 386.339 82.7061C384.666 87.724 339.505 122.013 331.978 132.886C324.451 143.758 321.942 248.298 321.942 257.498C321.942 266.697 318.597 329.422 346.195 329.422C368.274 329.422 458.541 332.488 504.26 333.603C510.951 262.794 521.656 117.664 510.951 103.614Z" fill="black"/>
<path d="M321.944 257.493C367.664 248.014 459.102 237.588 459.102 271.71C459.102 305.832 416.728 325.116 395.541 330.492M459.102 77.604C453.526 80.1393 441.706 92.0677 439.03 119.499C435.685 153.788 424.946 165.497 416.247 165.497M407.71 167.17C400.587 171.072 385.003 174.027 379.651 154.625C372.96 130.371 359.001 116.99 343.4 121.172M484.191 86.8831C482.519 86.1752 455.756 104.445 453.247 146.261C450.738 188.078 423.976 266.692 368.779 224.876C347.869 203.967 327.723 190.865 324.339 192.259M386.341 330.24C393.868 322.996 406.915 306.167 398.886 296.8C390.858 287.433 346.942 300.145 325.988 307.672M514.967 125.353C496.903 136.504 463.618 172.02 474.992 224.876C485.028 254.984 503.367 251.917 511.283 246.62M508.257 287.6C497.447 287.743 476.832 297.017 480.846 332.975" stroke="white" stroke-width="0.970341"/>
<path d="M411.429 329.414V188.912" stroke="white" stroke-width="0.970341"/>
<path d="M411.931 328.046L407.821 297.486C398.474 299.181 379.009 300.824 363.973 302.249C348.231 303.741 344.264 312.006 354.831 314.645C349.304 313.955 343.116 321.576 351.935 324.988C345.466 327.285 358.261 329.85 364.533 329.862C360.944 330.404 354.719 331.405 355.565 335.208C356.411 339.012 393.495 332.018 411.931 328.046Z" fill="white"/>
<path d="M411.931 328.046L407.821 297.486C405.647 297.881 402.924 298.272 399.838 298.659L390.487 332.302C398.344 330.874 406.078 329.308 411.931 328.046Z" fill="black"/>
<path d="M364.79 330.087L377.794 326.427" stroke="black" stroke-width="0.970341"/>
<path d="M354.914 321.921L377.712 319.153" stroke="black" stroke-width="0.970341"/>
<path d="M354.831 314.645L378.116 310.617" stroke="black" stroke-width="0.970341"/>
<path d="M535.763 301.209C537.787 269.181 539.996 107.771 503.867 99.0702C462.105 89.0127 462.652 242.944 480.782 278.061L395.505 286.73L403.507 339.936C444.967 337.041 532.414 354.209 535.763 301.209Z" fill="black"/>
<path d="M503.866 99.0697C462.104 89.0123 462.652 242.943 480.782 278.06L395.505 286.729" stroke="white" stroke-width="0.970341"/>
<path d="M521.263 122.266C508.358 123.669 479.679 131.119 472.644 148.583M529.291 150.367C517.662 155.454 490.435 172.578 487.001 190.156C483.567 207.734 519.94 201.799 534.644 198.54M535.536 229.317C523.314 235.023 480.468 238.811 470.86 225.749M535.982 284.181C523.464 276.584 487.427 261.421 477.996 267.231M444.097 281.505C438.744 293.102 447.127 335.746 470.86 340.383" stroke="white" stroke-width="0.970341"/>
<path d="M172.385 220.606H312.487C315.675 220.606 318.538 222.555 319.708 225.52L361.546 331.575C362.716 334.54 365.58 336.489 368.767 336.489H479.368C481.423 336.489 483.089 338.155 483.089 340.21C483.089 342.265 481.423 343.931 479.368 343.931H215.133C211.95 343.931 209.09 341.988 207.917 339.03L165.169 231.23C163.148 226.134 166.903 220.606 172.385 220.606Z" fill="white" stroke="black" stroke-width="2.91102"/>
<path d="M318.645 222.714L365.892 336.489H363.791C360.656 336.489 357.83 334.604 356.625 331.71L312.329 225.341C311.391 223.088 313.046 220.606 315.486 220.606C316.868 220.606 318.115 221.438 318.645 222.714Z" fill="black"/>
<path d="M207.917 339.03L165.169 231.23C163.148 226.134 166.903 220.606 172.385 220.606H180.682C181.837 220.606 182.976 220.865 184.025 221.346C187.98 223.158 194.463 225.989 205.033 231.33C241.418 249.714 246.014 288.779 238.354 307.929C232.144 323.454 314.226 339.501 346.474 343.931H215.133C211.95 343.931 209.09 341.988 207.917 339.03Z" fill="black"/>
<ellipse cx="9.13631" cy="10.5068" rx="9.13631" ry="10.5068" transform="matrix(-0.936312 0.351169 0.351169 0.936312 262.763 258.906)" fill="black"/>
</svg>
